<svg id="visual" viewBox="0 0 960 540" width="960" height="540" xmlns="http://www.w3.org/2000/svg" xmlns:xlink="http://www.w3.org/1999/xlink" version="1.1"><rect x="0" y="0" width="960" height="540" fill="#001220"></rect><defs><linearGradient id="grad1_0" x1="43.8%" y1="0%" x2="100%" y2="100%"><stop offset="14.444444444444446%" stop-color="#001220" stop-opacity="1"></stop><stop offset="85.55555555555554%" stop-color="#001220" stop-opacity="1"></stop></linearGradient></defs><defs><linearGradient id="grad2_0" x1="0%" y1="0%" x2="56.3%" y2="100%"><stop offset="14.444444444444446%" stop-color="#001220" stop-opacity="1"></stop><stop offset="85.55555555555554%" stop-color="#001220" stop-opacity="1"></stop></linearGradient></defs><g transform="translate(960, 0)"><path d="M0 486C-63.5 479.8 -126.9 473.7 -186 449C-245 424.3 -299.7 381.1 -328.8 328.8C-357.9 276.5 -361.5 215.1 -383.4 158.8C-405.4 102.5 -445.7 51.2 -486 0L0 0Z" fill="#715DF2"></path></g><g transform="translate(0, 540)"><path d="M0 -486C57.2 -466.2 114.5 -446.4 176.8 -426.8C239.1 -407.3 306.5 -388 343.7 -343.7C380.8 -299.3 387.8 -229.8 406.5 -168.4C425.2 -106.9 455.6 -53.5 486 0L0 0Z" fill="#715DF2"></path></g></svg>